<svg xmlns="http://www.w3.org/2000/svg" viewBox="0 0 512 512">
  <defs>
    <linearGradient id="grad1" x1="0%" y1="0%" x2="100%" y2="100%">
      <stop offset="0%" style="stop-color:#22d3ee;stop-opacity:1" />
      <stop offset="100%" style="stop-color:#0ea5e9;stop-opacity:1" />
    </linearGradient>
  </defs>
  <rect width="512" height="512" rx="100" fill="#0f172a" />
  <path d="M160 120 h192 a20 20 0 0 1 20 20 v40 a20 20 0 0 1 -20 20 h-132 v60 h112 a20 20 0 0 1 20 20 v40 a20 20 0 0 1 -20 20 h-112 v112 a20 20 0 0 1 -20 20 h-40 a20 20 0 0 1 -20 -20 v-312 a20 20 0 0 1 20 -20 z" fill="url(#grad1)" />
  <path d="M360 120 l-40 0 l20 60 z" fill="#0ea5e9" opacity="0.5" />
</svg>
